<svg width="760" height="941" viewBox="0 0 760 941" fill="none" xmlns="http://www.w3.org/2000/svg">
<mask id="mask0_93_1085" style="mask-type:alpha" maskUnits="userSpaceOnUse" x="163" y="32" width="1280" height="800">
<path fill-rule="evenodd" clip-rule="evenodd" d="M163 32H1443V824C1443 828.418 1439.42 832 1435 832H171C166.582 832 163 828.418 163 824V32Z" fill="white"/>
</mask>
<g mask="url(#mask0_93_1085)">
<path fill-rule="evenodd" clip-rule="evenodd" d="M163 32H1443V832H163V32Z" fill="white"/>
</g>
<path d="M171 1H1435C1438.87 1 1442 4.13401 1442 8V824C1442 827.866 1438.87 831 1435 831H171C167.134 831 164 827.866 164 824V7.99998C164 4.13399 167.134 1 171 1Z" stroke="#CCCCCC" stroke-width="2"/>
<path d="M171 1H1435C1438.87 1 1442 4.13401 1442 8V31H164V8C164 4.13401 167.134 1 171 1Z" fill="white" stroke="#CCCCCC" stroke-width="2"/>
<path fill-rule="evenodd" clip-rule="evenodd" d="M215 22C218.314 22 221 19.3137 221 16C221 12.6863 218.314 10 215 10C211.686 10 209 12.6863 209 16C209 19.3137 211.686 22 215 22Z" fill="#CCCCCC"/>
<path fill-rule="evenodd" clip-rule="evenodd" d="M197 22C200.314 22 203 19.3137 203 16C203 12.6863 200.314 10 197 10C193.686 10 191 12.6863 191 16C191 19.3137 193.686 22 197 22Z" fill="#CCCCCC"/>
<path fill-rule="evenodd" clip-rule="evenodd" d="M179 22C182.314 22 185 19.3137 185 16C185 12.6863 182.314 10 179 10C175.686 10 173 12.6863 173 16C173 19.3137 175.686 22 179 22Z" fill="#CCCCCC"/>
<path fill-rule="evenodd" clip-rule="evenodd" d="M2.11706 462.674C1.42873 462.853 0.603324 463.31 0.162588 463.961C0.0718067 464.095 0 464.518 0 464.641C0 470.789 0 489.514 0 520.818C0 520.949 0.10107 521.609 0.162955 521.769C0.519612 522.693 1.13931 522.916 2.11706 523.45H3.32681C3.32681 521.767 3.34719 464.319 3.32681 462.674H2.11706Z" fill="#CCCCCC"/>
<path fill-rule="evenodd" clip-rule="evenodd" d="M2.11706 542.201C1.42873 542.379 0.603324 542.837 0.162588 543.487C0.0718067 543.621 0 544.045 0 544.168C0 550.316 0 569.041 0 600.345C0 600.475 0.10107 601.136 0.162955 601.296C0.519612 602.22 1.13931 602.443 2.11706 602.977H3.32681C3.32681 601.294 3.34719 543.845 3.32681 542.201H2.11706Z" fill="#CCCCCC"/>
<path fill-rule="evenodd" clip-rule="evenodd" d="M2.11706 401.898C0.947841 401.898 0 402.932 0 404.207V432.564C0 433.839 0.947841 434.873 2.11706 434.873H3.32681C3.32681 433.138 3.34719 403.594 3.32681 401.898H2.11706Z" fill="#CCCCCC"/>
<path fill-rule="evenodd" clip-rule="evenodd" d="M426.974 495.325C428.143 495.325 429.091 498.415 429.091 502.227V587.022C429.091 590.834 428.143 593.924 426.974 593.924H425.764C425.764 588.738 425.744 500.395 425.764 495.325H426.974Z" fill="#CCCCCC"/>
<path d="M4.12061 313.81C4.12061 289.037 9.88945 270.891 21.7523 258.927C33.6136 246.965 51.7504 241 76.9015 241H352.328C377.479 241 395.616 246.965 407.477 258.927C419.34 270.891 425.109 289.037 425.109 313.81V1027.19C425.109 1051.09 418.94 1069.25 406.859 1081.44C394.778 1093.62 376.629 1100 352.328 1100H76.9015C51.7504 1100 33.6136 1094.03 21.7523 1082.07C9.88945 1070.11 4.12061 1051.96 4.12061 1027.19V313.81Z" fill="white" stroke="#CCCCCC" stroke-width="2"/>
<path d="M8.78955 314.086C8.78955 290.37 14.1522 273.328 25.262 262.202C36.3715 251.076 53.4196 245.672 77.2315 245.672H352.663C376.474 245.672 393.523 251.076 404.632 262.202C415.742 273.328 421.104 290.37 421.104 314.086V1026.91C421.104 1049.76 415.34 1066.82 404.01 1078.17C392.679 1089.52 375.617 1095.33 352.663 1095.33H77.2315C53.4196 1095.33 36.3715 1089.92 25.262 1078.8C14.1522 1067.67 8.78955 1050.63 8.78955 1026.91V314.086Z" fill="white" stroke="#CCCCCC" stroke-width="2"/>
<path fill-rule="evenodd" clip-rule="evenodd" d="M259.832 278.701C263.148 278.701 265.837 276.011 265.837 272.694C265.837 269.376 263.148 266.687 259.832 266.687C256.516 266.687 253.828 269.376 253.828 272.694C253.828 276.011 256.516 278.701 259.832 278.701Z" fill="#CCCCCC"/>
<path d="M187.927 272.797C187.927 270.903 189.463 269.367 191.357 269.367H237.236C239.13 269.367 240.666 270.903 240.666 272.797C240.666 274.692 239.13 276.228 237.236 276.228H191.357C189.463 276.228 187.927 274.692 187.927 272.797Z" fill="#CCCCCC"/>
<path fill-rule="evenodd" clip-rule="evenodd" d="M110.068 271.674C110.068 281.28 117.137 293.025 133.401 293.025H295.401C311.666 293.025 318.735 281.28 318.735 272.007C318.735 267.385 318.735 263 326.401 263H358.735C385.756 263 402.068 279.325 402.068 306.369V1031.63C402.068 1058.67 385.756 1075 358.735 1075H70.4012C43.3795 1075 27.0679 1058.67 27.0679 1031.63V306.369C27.0679 279.325 43.3795 263 70.4012 263H102.401C110.068 263 110.068 267.385 110.068 271.674Z" fill="white"/>
<path d="M111.068 271.897C111.068 276.469 112.754 281.56 116.372 285.498C119.97 289.415 125.53 292.248 133.401 292.248H295.401C311.044 292.248 317.735 281.022 317.735 272.231V272.2C317.735 271.066 317.735 269.878 317.861 268.761C317.988 267.63 318.252 266.498 318.825 265.497C320.034 263.385 322.384 262.223 326.401 262.223H358.735C372.448 262.223 383.558 266.37 391.242 274.059C398.925 281.749 403.068 292.868 403.068 306.592V1031.85C403.068 1045.58 398.925 1056.7 391.242 1064.39C383.558 1072.08 372.448 1076.22 358.735 1076.22H70.4012C56.688 1076.22 45.5775 1072.08 37.894 1064.39C30.2106 1056.7 26.0679 1045.58 26.0679 1031.85V306.592C26.0679 292.868 30.2106 281.749 37.894 274.059C45.5775 266.37 56.688 262.223 70.4012 262.223H102.401C106.418 262.223 108.762 263.384 109.972 265.446C111.069 267.315 111.069 269.719 111.068 271.753L111.068 271.897Z" stroke="#CCCCCC" stroke-width="2"/>
<rect x="459.5" y="73.5" width="1491" height="899" rx="37.5" fill="white" stroke="#7C7C7C"/>
<mask id="mask1_93_1085" style="mask-type:alpha" maskUnits="userSpaceOnUse" x="485" y="104" width="1440" height="839">
<rect x="485" y="104" width="1440" height="839" rx="3" fill="#8F8F8F"/>
</mask>
<g mask="url(#mask1_93_1085)">
<rect x="485" y="104" width="1440" height="839" rx="3" fill="white"/>
<rect x="485" y="104" width="1440" height="40" fill="#ECECEC"/>
<rect x="509" y="114" width="19" height="19" fill="white"/>
<circle cx="550.5" cy="123.5" r="9.5" fill="white"/>
<path d="M580 114L591 133H569L580 114Z" fill="white"/>
</g>
<rect x="485.5" y="104.5" width="1439" height="838" rx="2.5" stroke="#7C7C7C"/>
</svg>
