<svg width="1508" height="984" viewBox="0 0 1508 984" fill="none" xmlns="http://www.w3.org/2000/svg">
<path fill-rule="evenodd" clip-rule="evenodd" d="M97.9208 2.97241L98.0279 5.94481L99.4124 6.0565L100.797 6.16855V3.0841V0H99.3054H97.8134L97.9208 2.97241ZM262.31 0.464056C262.2 0.743642 262.159 2.09113 262.22 3.45844L262.331 5.94481H263.808H265.284V3.06248V0.180146L263.897 0.0680951C262.96 -0.00756612 262.444 0.121058 262.31 0.464056ZM432.434 2.97241L432.541 5.94481L433.926 6.0565L435.31 6.16855V3.0841V0H433.819H432.327L432.434 2.97241ZM596.814 0.486033C596.709 0.75337 596.673 2.09113 596.733 3.45844L596.844 5.94481L598.228 6.0565L599.613 6.16855V3.0841V0H598.309C597.556 0 596.925 0.205006 596.814 0.486033ZM759.194 2.97241L759.301 5.94481H760.593H761.885L761.992 2.97241L762.1 0H760.593H759.086L759.194 2.97241ZM922.68 3.0841V6.16855L924.065 6.0565L925.45 5.94481L925.557 2.97241L925.664 0H924.172H922.68V3.0841ZM1085.95 2.97241L1086.06 5.94481L1087.44 6.0565L1088.83 6.16855V3.0841V0H1087.34H1085.85L1085.95 2.97241ZM1251.29 3.0841V6.16855L1252.67 6.0565L1254.06 5.94481L1254.16 2.97241L1254.27 0H1252.78H1251.29V3.0841ZM1415.67 2.97241L1415.77 5.94481L1417.16 6.0565L1418.54 6.16855V3.0841V0H1417.05H1415.56L1415.67 2.97241ZM97.8433 32.6064V41.4335H99.3201H100.797V32.6064V23.7792H99.3201H97.8433V32.6064ZM262.146 32.6064V41.475L263.715 41.364L265.284 41.2534V32.6064V23.9594L263.715 23.8488L262.146 23.7378V32.6064ZM432.356 32.6064V41.4335H433.833H435.31V32.6064V23.7792H433.833H432.356V32.6064ZM596.825 24.2375C596.726 24.4894 596.69 28.4212 596.745 32.9746L596.844 41.2534L598.228 41.3651L599.613 41.4771V32.628V23.7792H598.309C597.592 23.7792 596.924 23.9853 596.825 24.2375ZM759.116 32.6064V41.4335H760.593H762.07V32.6064V23.7792H760.593H759.116V32.6064ZM922.68 32.6064V41.4335H924.157H925.634V32.6064V23.7792H924.157H922.68V32.6064ZM1085.88 32.6064V41.4335H1087.35H1088.83V32.6064V23.7792H1087.35H1085.88V32.6064ZM1251.29 32.6064V41.4335H1252.76H1254.24V32.6064V23.7792H1252.76H1251.29V32.6064ZM1415.59 32.6064V41.4335H1417.07H1418.54V32.6064V23.7792H1417.07H1415.59V32.6064ZM97.8433 68.2753V77.1024H99.3201H100.797V68.2753V59.4481H99.3201H97.8433V68.2753ZM262.146 68.2958V77.1438L263.715 77.0329L265.284 76.9223L265.383 68.1852L265.482 59.4481H263.814H262.146V68.2958ZM432.356 68.2753V77.1024H433.833H435.31V68.2753V59.4481H433.833H432.356V68.2753ZM596.745 68.1852L596.844 76.9223L598.228 77.0339L599.613 77.146V68.2969V59.4481H598.13H596.646L596.745 68.1852ZM759.116 68.2753V77.1024H760.593H762.07V68.2753V59.4481H760.593H759.116V68.2753ZM922.68 68.2753V77.1024H924.157H925.634V68.2753V59.4481H924.157H922.68V68.2753ZM1085.88 68.2753V77.1024H1087.35H1088.83V68.2753V59.4481H1087.35H1085.88V68.2753ZM1251.29 68.2753V77.1024H1252.76H1254.24V68.2753V59.4481H1252.76H1251.29V68.2753ZM1415.59 68.2753V77.1024H1417.07H1418.54V68.2753V59.4481H1417.07H1415.59V68.2753ZM0 87.5509V88.992H9.04589H18.0918V87.5509V86.1097H9.04589H0V87.5509ZM36.5528 87.5509V88.992H45.5987H54.6445V87.5509V86.1097H45.5987H36.5528V87.5509ZM72.7363 87.557V89.0046L81.8745 88.9081L91.0127 88.8119L91.1271 87.4608L91.242 86.1097H81.989H72.7363V87.557ZM109.289 87.5509V88.992H118.335H127.381V87.5509V86.1097H118.335H109.289V87.5509ZM145.842 87.5509V88.992H154.888H163.934V87.5509V86.1097H154.888H145.842V87.5509ZM182.096 87.4608L182.21 88.8119L191.348 88.9081L200.486 89.0046V87.557V86.1097H191.234H181.981L182.096 87.4608ZM218.578 87.557V89.0046L227.716 88.9081L236.855 88.8119L236.969 87.4608L237.084 86.1097H227.831H218.578V87.557ZM255.131 87.5509V88.992H264.177H273.223V87.5509V86.1097H264.177H255.131V87.5509ZM291.385 87.4608L291.499 88.8119H300.545H309.591L309.705 87.4608L309.82 86.1097H300.545H291.27L291.385 87.4608ZM327.937 87.4608L328.052 88.8119H337.098H346.144L346.258 87.4608L346.373 86.1097H337.098H327.823L327.937 87.4608ZM352.236 87.5573V89.005L361.005 88.9084L369.774 88.8119L369.888 87.4608L370.003 86.1097H361.119H352.236V87.5573ZM388.05 87.5509V88.992H397.096H406.142V87.5509V86.1097H397.096H388.05V87.5509ZM424.304 87.4608L424.418 88.8119L433.556 88.9081L442.695 89.0046V87.557V86.1097H433.442H424.189L424.304 87.4608ZM460.786 87.557V89.0046L469.925 88.9081L479.063 88.8119L479.177 87.4608L479.292 86.1097H470.039H460.786V87.557ZM497.339 87.5509V88.992H506.385H515.431V87.5509V86.1097H506.385H497.339V87.5509ZM533.593 87.4608L533.707 88.8119L542.845 88.9081L551.984 89.0046V87.557V86.1097H542.731H533.478L533.593 87.4608ZM570.146 87.4608L570.26 88.8119H579.306H588.352L588.466 87.4608L588.581 86.1097H579.306H570.031L570.146 87.4608ZM606.628 87.5509V88.992H615.674H624.72V87.5509V86.1097H615.674H606.628V87.5509ZM642.956 86.6238C642.844 86.9067 642.808 87.5148 642.875 87.9749L642.996 88.8119L652.135 88.9081L661.273 89.0046V87.557V86.1097H652.215C644.71 86.1097 643.123 86.198 642.956 86.6238ZM679.435 87.4608L679.549 88.8119L688.687 88.9081L697.825 89.0046V87.557V86.1097H688.573H679.32L679.435 87.4608ZM715.987 87.4608L716.102 88.8119H725.148H734.194L734.308 87.4608L734.423 86.1097H725.148H715.873L715.987 87.4608ZM752.47 87.5509V88.992H761.516H770.562V87.5509V86.1097H761.516H752.47V87.5509ZM789.023 87.5509V88.992H798.069H807.115V87.5509V86.1097H798.069H789.023V87.5509ZM825.276 87.4608L825.391 88.8119H834.437H843.483L843.597 87.4608L843.712 86.1097H834.437H825.162L825.276 87.4608ZM861.759 87.5509V88.992H870.805H879.851V87.5509V86.1097H870.805H861.759V87.5509ZM898.312 87.5509V88.992H907.358H916.404V87.5509V86.1097H907.358H898.312V87.5509ZM934.566 87.4608L934.68 88.8119H943.726H952.772L952.886 87.4608L953.001 86.1097H943.726H934.451L934.566 87.4608ZM971.048 87.557V89.0046L980.186 88.9081L989.325 88.8119L989.439 87.4608L989.554 86.1097H980.301H971.048V87.557ZM1007.6 87.5509V88.992H1016.65H1025.69V87.5509V86.1097H1016.65H1007.6V87.5509ZM1043.85 87.4608L1043.97 88.8119L1053.11 88.9081L1062.25 89.0046V87.557V86.1097H1052.99H1043.74L1043.85 87.4608ZM1080.34 87.557V89.0046L1089.48 88.9081L1098.61 88.8119L1098.73 87.4608L1098.84 86.1097H1089.59H1080.34V87.557ZM1116.89 87.5509V88.992H1125.94H1134.98V87.5509V86.1097H1125.94H1116.89V87.5509ZM1153.44 87.5509V88.992H1162.49H1171.53V87.5509V86.1097H1162.49H1153.44V87.5509ZM1189.7 87.4608L1189.81 88.8119H1198.86H1207.9L1208.02 87.4608L1208.13 86.1097H1198.86H1189.58L1189.7 87.4608ZM1226.18 87.5509V88.992H1235.22H1244.27V87.5509V86.1097H1235.22H1226.18V87.5509ZM1262.43 87.4608L1262.55 88.8119L1271.69 88.9081L1280.82 89.0046V87.557V86.1097H1271.57H1262.32L1262.43 87.4608ZM1298.99 87.4608L1299.1 88.8119H1308.15H1317.19L1317.31 87.4608L1317.42 86.1097H1308.15H1298.87L1298.99 87.4608ZM1335.47 87.5509V89.0046L1344.61 88.9081L1353.74 88.8119V87.5509V86.2898L1344.61 86.1936L1335.47 86.0971V87.5509ZM1372.02 87.5509V88.992H1381.07H1390.11V87.5509V86.1097H1381.07H1372.02V87.5509ZM1408.27 87.4608L1408.39 88.8119L1417.53 88.9081L1426.67 89.0046V87.557V86.1097H1417.41H1408.16L1408.27 87.4608ZM1444.76 87.557V89.0046L1453.9 88.9081L1463.03 88.8119L1463.15 87.4608L1463.26 86.1097H1454.01H1444.76V87.557ZM1481.31 87.5509V88.992H1490.36H1499.4V87.5509V86.1097H1490.36H1481.31V87.5509ZM1505.68 87.5653V89.0212L1508.72 88.9164L1511.77 88.8119L1511.89 87.4608L1512 86.1097H1508.84H1505.68V87.5653ZM97.8433 103.764V112.771H99.3201H100.797V103.764V94.7567H99.3201H97.8433V103.764ZM262.321 95.1926C262.217 95.4564 262.177 99.479 262.231 104.132L262.331 112.591H263.808H265.284V103.764V94.9368L263.897 94.8248C262.995 94.752 262.443 94.8806 262.321 95.1926ZM432.356 103.764V112.771H433.833H435.31V103.764V94.7567H433.833H432.356V103.764ZM596.825 95.2146C596.726 95.4665 596.69 99.479 596.745 104.132L596.844 112.591L598.228 112.703L599.613 112.815V103.786V94.7567H598.309C597.592 94.7567 596.924 94.9628 596.825 95.2146ZM759.116 103.764V112.771H760.593H762.07V103.764V94.7567H760.593H759.116V103.764ZM922.68 103.764V112.771H924.157H925.634V103.764V94.7567H924.157H922.68V103.764ZM1085.88 103.764V112.771H1087.35H1088.83V103.764V94.7567H1087.35H1085.88V103.764ZM1251.29 103.764V112.771H1252.76H1254.24V103.764V94.7567H1252.76H1251.29V103.764ZM1415.59 103.764V112.771H1417.07H1418.54V103.764V94.7567H1417.07H1415.59V103.764ZM97.8433 139.253V148.08H99.3201H100.797V139.253V130.426H99.3201H97.8433V139.253ZM262.146 139.253V148.08H263.808H265.469V139.253V130.426H263.808H262.146V139.253ZM432.356 139.253V148.08H433.833H435.31V139.253V130.426H433.833H432.356V139.253ZM596.659 139.253V148.08H598.136H599.613V139.253V130.426H598.136H596.659V139.253ZM759.116 139.253V148.08H760.593H762.07V139.253V130.426H760.593H759.116V139.253ZM922.68 139.253V148.08H924.157H925.634V139.253V130.426H924.157H922.68V139.253ZM1085.88 139.253V148.08H1087.35H1088.83V139.253V130.426H1087.35H1085.88V139.253ZM1251.29 139.253V148.08H1252.76H1254.24V139.253V130.426H1252.76H1251.29V139.253ZM1415.59 139.253V148.08H1417.07H1418.54V139.253V130.426H1417.07H1415.59V139.253ZM97.8433 174.922V183.749H99.3201H100.797V174.922V166.094H99.3201H97.8433V174.922ZM262.146 174.942V183.79L263.715 183.679L265.284 183.569L265.383 174.831L265.482 166.094H263.814H262.146V174.942ZM432.356 174.922V183.749H433.833H435.31V174.922V166.094H433.833H432.356V174.922ZM596.745 174.831L596.844 183.569L598.228 183.68L599.613 183.792V174.943V166.094H598.13H596.646L596.745 174.831ZM759.116 174.922V183.749H760.593H762.07V174.922V166.094H760.593H759.116V174.922ZM922.68 174.922V183.749H924.157H925.634V174.922V166.094H924.157H922.68V174.922ZM1085.88 174.922V183.749H1087.35H1088.83V174.922V166.094H1087.35H1085.88V174.922ZM1251.29 174.922V183.749H1252.76H1254.24V174.922V166.094H1252.76H1251.29V174.922ZM1415.59 174.922V183.749H1417.07H1418.54V174.922V166.094H1417.07H1415.59V174.922ZM97.8433 210.41V219.418H99.3201H100.797V210.41V201.403H99.3201H97.8433V210.41ZM262.321 201.839C262.217 202.103 262.177 206.125 262.231 210.778L262.331 219.237H263.808H265.284V210.41V201.583L263.897 201.471C262.995 201.398 262.443 201.527 262.321 201.839ZM432.603 201.643C432.467 201.775 432.356 205.828 432.356 210.651V219.418H433.833H435.31V210.41V201.403H434.08C433.402 201.403 432.738 201.511 432.603 201.643ZM596.825 201.861C596.726 202.113 596.69 206.125 596.745 210.778L596.844 219.237L598.228 219.349L599.613 219.461V210.432V201.403H598.309C597.592 201.403 596.924 201.609 596.825 201.861ZM759.362 201.643C759.227 201.775 759.116 205.828 759.116 210.651V219.418H760.593H762.07V210.41V201.403H760.839C760.162 201.403 759.497 201.511 759.362 201.643ZM922.68 210.389V219.418H924.164H925.647L925.548 210.5L925.45 201.583L924.065 201.471L922.68 201.359V210.389ZM1086.12 201.643C1085.99 201.775 1085.88 205.828 1085.88 210.651V219.418H1087.35H1088.83V210.41V201.403H1087.6C1086.92 201.403 1086.26 201.511 1086.12 201.643ZM1251.29 210.41V219.418H1252.76H1254.24V210.41V201.403H1252.76H1251.29V210.41ZM1415.84 201.643C1415.7 201.775 1415.59 205.828 1415.59 210.651V219.418H1417.07H1418.54V210.41V201.403H1417.31C1416.63 201.403 1415.97 201.511 1415.84 201.643ZM97.8433 246.079V255.086H99.3201H100.797V246.079V237.072H99.3201H97.8433V246.079ZM262.41 237.295C262.265 237.436 262.146 239.309 262.146 241.456V245.359H258.638H255.131V246.8V248.241H258.624H262.118L262.224 251.574L262.331 254.906H263.808H265.284L265.391 251.574L265.497 248.241H269.36H273.223V246.8V245.359H269.358H265.493L265.389 241.305L265.284 237.252L263.979 237.145C263.261 237.086 262.555 237.153 262.41 237.295ZM432.356 241.203V245.334L428.387 245.436L424.418 245.539L424.304 246.89L424.189 248.241H428.273H432.356V251.664V255.086H433.833H435.31V251.664V248.241H439.002H442.695V246.8V245.359H439.002H435.31V241.215V237.072H433.833H432.356V241.203ZM596.825 237.53C596.726 237.782 596.69 241.794 596.745 246.447L596.844 254.906L598.228 255.018L599.613 255.13V246.101V237.072H598.309C597.592 237.072 596.924 237.278 596.825 237.53ZM759.362 237.312C759.227 237.444 759.116 239.309 759.116 241.456V245.359H755.793H752.47V246.8V248.241H755.793H759.116V251.664V255.086H760.593H762.07V251.664V248.241H766.316H770.562V246.8V245.359H766.316H762.07V241.215V237.072H760.839C760.162 237.072 759.497 237.18 759.362 237.312ZM922.68 246.079V255.086H924.157H925.634V246.079V237.072H924.157H922.68V246.079ZM1085.88 241.215V245.359H1083.11H1080.34V246.8V248.241H1083.11H1085.88V251.664V255.086H1087.35H1088.83V251.664V248.241H1093.84H1098.84L1098.73 246.89L1098.61 245.539L1093.72 245.438L1088.83 245.338V241.205V237.072H1087.35H1085.88V241.215ZM1251.29 246.079V255.086H1252.76H1254.24V246.079V237.072H1252.76H1251.29V246.079ZM1415.84 237.312C1415.7 237.444 1415.59 239.309 1415.59 241.456V245.359H1411.9H1408.2V246.8V248.241H1411.9H1415.59V251.664V255.086H1417.07H1418.54V251.664V248.241H1422.6H1426.67V246.8V245.359H1422.6H1418.54V241.215V237.072H1417.31C1416.63 237.072 1415.97 237.18 1415.84 237.312ZM0 246.8V248.241H9.04589H18.0918V246.8V245.359H9.04589H0V246.8ZM36.5528 246.8V248.241H45.5987H54.6445V246.8V245.359H45.5987H36.5528V246.8ZM72.7363 246.794V248.241H81.989H91.242L91.1271 246.89L91.0127 245.539L81.8745 245.443L72.7363 245.346V246.794ZM109.289 246.8V248.241H118.335H127.381V246.8V245.359H118.335H109.289V246.8ZM145.842 246.8V248.241H154.888H163.934V246.8V245.359H154.888H145.842V246.8ZM182.272 245.599C182.136 245.731 182.025 246.379 182.025 247.04V248.241H191.256H200.486V246.8V245.359H191.502C186.561 245.359 182.407 245.467 182.272 245.599ZM218.578 246.794V248.241H227.831H237.084L236.969 246.89L236.855 245.539L227.716 245.443L218.578 245.346V246.794ZM291.561 245.599C291.425 245.731 291.314 246.379 291.314 247.04V248.241H300.545H309.775V246.8V245.359H300.791C295.85 245.359 291.696 245.467 291.561 245.599ZM327.867 246.794V248.241H337.12H346.373L346.258 246.89L346.144 245.539L337.005 245.443L327.867 245.346V246.794ZM352.236 246.793V248.241H361.119H370.003L369.888 246.89L369.774 245.539L361.005 245.442L352.236 245.346V246.793ZM388.05 246.8V248.241H397.096H406.142V246.8V245.359H397.096H388.05V246.8ZM460.786 246.794V248.241H470.039H479.292L479.177 246.89L479.063 245.539L469.925 245.443L460.786 245.346V246.794ZM497.339 246.8V248.241H506.385H515.431V246.8V245.359H506.385H497.339V246.8ZM533.769 245.599C533.633 245.731 533.523 246.379 533.523 247.04V248.241H542.753H551.984V246.8V245.359H542.999C538.058 245.359 533.904 245.467 533.769 245.599ZM570.075 246.8V248.241H579.306H588.536V246.8V245.359H579.306H570.075V246.8ZM606.628 246.8V248.241H615.674H624.72V246.8V245.359H615.674H606.628V246.8ZM643.058 245.599C642.923 245.731 642.812 246.379 642.812 247.04V248.241H652.042H661.273V246.8V245.359H652.289C647.347 245.359 643.193 245.467 643.058 245.599ZM679.611 245.599C679.475 245.731 679.365 246.379 679.365 247.04V248.241H688.595H697.825V246.8V245.359H688.841C683.9 245.359 679.746 245.467 679.611 245.599ZM715.917 246.794V248.241H725.17H734.423L734.308 246.89L734.194 245.539L725.055 245.443L715.917 245.346V246.794ZM789.023 246.8V248.241H798.069H807.115V246.8V245.359H798.069H789.023V246.8ZM825.206 246.8V248.241H834.437H843.667V246.8V245.359H834.437H825.206V246.8ZM861.759 246.8V248.241H870.805H879.851V246.8V245.359H870.805H861.759V246.8ZM898.312 246.8V248.241H907.358H916.404V246.8V245.359H907.358H898.312V246.8ZM934.742 245.599C934.606 245.731 934.495 246.379 934.495 247.04V248.241H943.726H952.956V246.8V245.359H943.972C939.031 245.359 934.877 245.467 934.742 245.599ZM971.048 246.794V248.241H980.301H989.554L989.439 246.89L989.325 245.539L980.186 245.443L971.048 245.346V246.794ZM1007.6 246.8V248.241H1016.65H1025.69V246.8V245.359H1016.65H1007.6V246.8ZM1043.78 246.8V248.241H1053.01H1062.25V246.8V245.359H1053.01H1043.78V246.8ZM1116.89 246.8V248.241H1125.94H1134.98V246.8V245.359H1125.94H1116.89V246.8ZM1153.44 246.8V248.241H1162.49H1171.53V246.8V245.359H1162.49H1153.44V246.8ZM1189.63 246.8V248.241H1198.86H1208.09V246.8V245.359H1198.86H1189.63V246.8ZM1226.18 246.8V248.241H1235.22H1244.27V246.8V245.359H1235.22H1226.18V246.8ZM1262.61 245.599C1262.47 245.731 1262.36 246.379 1262.36 247.04V248.241H1271.59H1280.82V246.8V245.359H1271.84C1266.9 245.359 1262.74 245.467 1262.61 245.599ZM1299.17 245.592C1299.03 245.728 1298.92 246.379 1298.92 247.04V248.241H1308.17H1317.42L1317.31 246.89L1317.19 245.539L1308.31 245.443C1303.42 245.39 1299.31 245.457 1299.17 245.592ZM1335.47 246.794V248.241H1344.72H1353.97L1353.86 246.89L1353.74 245.539L1344.61 245.443L1335.47 245.346V246.794ZM1372.02 246.8V248.241H1381.07H1390.11V246.8V245.359H1381.07H1372.02V246.8ZM1444.76 246.794V248.241H1454.01H1463.26L1463.15 246.89L1463.03 245.539L1453.9 245.443L1444.76 245.346V246.794ZM1481.31 246.8V248.241H1490.36H1499.4V246.8V245.359H1490.36H1481.31V246.8ZM1505.68 246.785V248.241H1508.84H1512L1511.89 246.89L1511.77 245.539L1508.72 245.434L1505.68 245.329V246.785ZM97.8433 281.568V290.395H99.3201H100.797V281.568V272.741H99.3201H97.8433V281.568ZM262.146 281.568V290.395H263.808H265.469V281.568V272.741H263.808H262.146V281.568ZM432.356 281.568V290.395H433.833H435.31V281.568V272.741H433.833H432.356V281.568ZM596.659 281.568V290.395H598.136H599.613V281.568V272.741H598.136H596.659V281.568ZM759.116 281.568V290.395H760.593H762.07V281.568V272.741H760.593H759.116V281.568ZM922.68 281.568V290.395H924.157H925.634V281.568V272.741H924.157H922.68V281.568ZM1085.88 281.568V290.395H1087.35H1088.83V281.568V272.741H1087.35H1085.88V281.568ZM1251.29 281.568V290.395H1252.76H1254.24V281.568V272.741H1252.76H1251.29V281.568ZM1415.59 281.568V290.395H1417.07H1418.54V281.568V272.741H1417.07H1415.59V281.568ZM97.8433 317.237V326.064H99.3201H100.797V317.237V308.41H99.3201H97.8433V317.237ZM262.146 317.237V326.064H263.808H265.469V317.237V308.41H263.808H262.146V317.237ZM432.356 317.237V326.064H433.833H435.31V317.237V308.41H433.833H432.356V317.237ZM596.659 317.237V326.064H598.136H599.613V317.237V308.41H598.136H596.659V317.237ZM759.116 317.237V326.064H760.593H762.07V317.237V308.41H760.593H759.116V317.237ZM922.68 317.237V326.064H924.157H925.634V317.237V308.41H924.157H922.68V317.237ZM1085.88 317.237V326.064H1087.35H1088.83V317.237V308.41H1087.35H1085.88V317.237ZM1251.29 317.237V326.064H1252.76H1254.24V317.237V308.41H1252.76H1251.29V317.237ZM1415.59 317.237V326.064H1417.07H1418.54V317.237V308.41H1417.07H1415.59V317.237ZM97.8433 352.725V361.733H99.3201H100.797V352.725V343.718H99.3201H97.8433V352.725ZM262.321 344.154C262.217 344.418 262.177 348.441 262.231 353.093L262.331 361.553H263.808H265.284V352.725V343.898L263.897 343.786C262.995 343.714 262.443 343.842 262.321 344.154ZM432.356 352.725V361.733H433.833H435.31V352.725V343.718H433.833H432.356V352.725ZM596.825 344.176C596.726 344.428 596.69 348.441 596.745 353.093L596.844 361.553L598.228 361.664L599.613 361.776V352.747V343.718H598.309C597.592 343.718 596.924 343.924 596.825 344.176ZM759.202 352.635L759.301 361.553L760.685 361.664L762.07 361.776V352.747V343.718H760.587H759.103L759.202 352.635ZM922.68 352.725V361.733H924.157H925.634V352.725V343.718H924.157H922.68V352.725ZM1085.88 352.725V361.733H1087.35H1088.83V352.725V343.718H1087.35H1085.88V352.725ZM1251.29 352.725V361.733H1252.76H1254.24V352.725V343.718H1252.76H1251.29V352.725ZM1415.59 352.725V361.733H1417.07H1418.54V352.725V343.718H1417.07H1415.59V352.725ZM97.8433 388.394V397.402H99.3201H100.797V388.394V379.387H99.3201H97.8433V388.394ZM262.321 379.823C262.217 380.087 262.177 384.109 262.231 388.762L262.331 397.221H263.808H265.284V388.394V379.567L263.897 379.455C262.995 379.382 262.443 379.511 262.321 379.823ZM432.442 388.304L432.541 397.221L433.926 397.333L435.31 397.445V388.416V379.387H433.827H432.343L432.442 388.304ZM596.825 379.845C596.726 380.097 596.69 384.109 596.745 388.762L596.844 397.221L598.228 397.333L599.613 397.445V388.416V379.387H598.309C597.592 379.387 596.924 379.593 596.825 379.845ZM759.202 388.304L759.301 397.221L760.685 397.333L762.07 397.445V388.416V379.387H760.587H759.103L759.202 388.304ZM922.68 388.416V397.445L924.065 397.333L925.45 397.221L925.548 388.304L925.647 379.387H924.164H922.68V388.416ZM1085.96 388.304L1086.06 397.221L1087.44 397.333L1088.83 397.445V388.416V379.387H1087.35H1085.86L1085.96 388.304ZM1251.29 388.394V397.402H1252.76H1254.24V388.394V379.387H1252.76H1251.29V388.394ZM1415.67 388.304L1415.77 397.221L1417.16 397.333L1418.54 397.445V388.416V379.387H1417.06H1415.58L1415.67 388.304ZM0 405.328V406.769H9.04589H18.0918V405.328V403.887H9.04589H0V405.328ZM36.5528 405.328V406.769H45.5987H54.6445V405.328V403.887H45.5987H36.5528V405.328ZM72.7363 405.322V406.769H81.989H91.242L91.1271 405.418L91.0127 404.067L81.8745 403.971L72.7363 403.874V405.322ZM109.289 405.328V406.769H118.335H127.381V405.328V403.887H118.335H109.289V405.328ZM145.842 405.328V406.769H154.888H163.934V405.328V403.887H154.888H145.842V405.328ZM182.272 404.127C182.136 404.259 182.025 404.908 182.025 405.568V406.769H191.256H200.486V405.328V403.887H191.502C186.561 403.887 182.407 403.995 182.272 404.127ZM218.578 405.328V406.782L227.716 406.685L236.855 406.589V405.328V404.067L227.716 403.971L218.578 403.874V405.328ZM255.131 405.328V406.769H264.177H273.223V405.328V403.887H264.177H255.131V405.328ZM291.561 404.127C291.425 404.259 291.314 404.908 291.314 405.568V406.769H300.545H309.775V405.328V403.887H300.791C295.85 403.887 291.696 403.995 291.561 404.127ZM327.867 405.322V406.769H337.12H346.373L346.258 405.418L346.144 404.067L337.005 403.971L327.867 403.874V405.322ZM352.236 405.322V406.769H361.119H370.003L369.888 405.418L369.774 404.067L361.005 403.97L352.236 403.874V405.322ZM388.05 405.328V406.769H397.096H406.142V405.328V403.887H397.096H388.05V405.328ZM424.48 404.127C424.344 404.259 424.234 404.908 424.234 405.568V406.769H433.464H442.695V405.328V403.887H433.71C428.769 403.887 424.615 403.995 424.48 404.127ZM460.786 405.322V406.769H470.039H479.292L479.177 405.418L479.063 404.067L469.925 403.971L460.786 403.874V405.322ZM497.339 405.328V406.769H506.385H515.431V405.328V403.887H506.385H497.339V405.328ZM533.769 404.127C533.633 404.259 533.523 404.908 533.523 405.568V406.769H542.753H551.984V405.328V403.887H542.999C538.058 403.887 533.904 403.995 533.769 404.127ZM570.075 405.328V406.769H579.306H588.536V405.328V403.887H579.306H570.075V405.328ZM606.628 405.328V406.769H615.674H624.72V405.328V403.887H615.674H606.628V405.328ZM642.956 404.401C642.844 404.684 642.808 405.292 642.875 405.752L642.996 406.589L652.135 406.685L661.273 406.782V405.334V403.887H652.215C644.71 403.887 643.123 403.975 642.956 404.401ZM679.611 404.127C679.475 404.259 679.365 404.908 679.365 405.568V406.769H688.595H697.825V405.328V403.887H688.841C683.9 403.887 679.746 403.995 679.611 404.127ZM715.917 405.322V406.769H725.17H734.423L734.308 405.418L734.194 404.067L725.055 403.971L715.917 403.874V405.322ZM752.47 405.328V406.769H761.516H770.562V405.328V403.887H761.516H752.47V405.328ZM789.023 405.328V406.769H798.069H807.115V405.328V403.887H798.069H789.023V405.328ZM825.206 405.328V406.769H834.437H843.667V405.328V403.887H834.437H825.206V405.328ZM861.759 405.328V406.769H870.805H879.851V405.328V403.887H870.805H861.759V405.328ZM898.312 405.328V406.769H907.358H916.404V405.328V403.887H907.358H898.312V405.328ZM934.742 404.127C934.606 404.259 934.495 404.908 934.495 405.568V406.769H943.726H952.956V405.328V403.887H943.972C939.031 403.887 934.877 403.995 934.742 404.127ZM971.048 405.322V406.769H980.301H989.554L989.439 405.418L989.325 404.067L980.186 403.971L971.048 403.874V405.322ZM1007.6 405.328V406.769H1016.65H1025.69V405.328V403.887H1016.65H1007.6V405.328ZM1043.78 405.328V406.769H1053.01H1062.25V405.328V403.887H1053.01H1043.78V405.328ZM1080.34 405.328V406.782L1089.48 406.685L1098.61 406.589V405.328V404.067L1089.48 403.971L1080.34 403.874V405.328ZM1116.89 405.328V406.769H1125.94H1134.98V405.328V403.887H1125.94H1116.89V405.328ZM1153.44 405.328V406.769H1162.49H1171.53V405.328V403.887H1162.49H1153.44V405.328ZM1189.63 405.328V406.769H1198.86H1208.09V405.328V403.887H1198.86H1189.63V405.328ZM1226.18 405.328V406.769H1235.22H1244.27V405.328V403.887H1235.22H1226.18V405.328ZM1262.61 404.127C1262.47 404.259 1262.36 404.908 1262.36 405.568V406.769H1271.59H1280.82V405.328V403.887H1271.84C1266.9 403.887 1262.74 403.995 1262.61 404.127ZM1299.17 404.121C1299.03 404.257 1298.92 404.908 1298.92 405.568V406.769H1308.17H1317.42L1317.31 405.418L1317.19 404.067L1308.31 403.971C1303.42 403.918 1299.31 403.985 1299.17 404.121ZM1335.47 405.328V406.782L1344.61 406.685L1353.74 406.589V405.328V404.067L1344.61 403.971L1335.47 403.874V405.328ZM1372.02 405.328V406.769H1381.07H1390.11V405.328V403.887H1381.07H1372.02V405.328ZM1408.2 405.328V406.769H1417.43H1426.67V405.328V403.887H1417.43H1408.2V405.328ZM1444.76 405.322V406.769H1454.01H1463.26L1463.15 405.418L1463.03 404.067L1453.9 403.971L1444.76 403.874V405.322ZM1481.31 405.328V406.769H1490.36H1499.4V405.328V403.887H1490.36H1481.31V405.328ZM1505.68 405.314V406.769H1508.84H1512L1511.89 405.418L1511.77 404.067L1508.72 403.963L1505.68 403.858V405.314ZM97.8433 423.883V432.71H99.3201H100.797V423.883V415.056H99.3201H97.8433V423.883ZM262.146 423.883V432.71H263.808H265.469V423.883V415.056H263.808H262.146V423.883ZM432.356 423.883V432.71H433.833H435.31V423.883V415.056H433.833H432.356V423.883ZM596.659 423.883V432.71H598.136H599.613V423.883V415.056H598.136H596.659V423.883ZM759.116 423.883V432.71H760.593H762.07V423.883V415.056H760.593H759.116V423.883ZM922.68 423.883V432.71H924.157H925.634V423.883V415.056H924.157H922.68V423.883ZM1085.88 423.883V432.71H1087.35H1088.83V423.883V415.056H1087.35H1085.88V423.883ZM1251.29 423.883V432.71H1252.76H1254.24V423.883V415.056H1252.76H1251.29V423.883ZM1415.59 423.883V432.71H1417.07H1418.54V423.883V415.056H1417.07H1415.59V423.883ZM98.0895 450.605C97.954 450.737 97.8433 454.79 97.8433 459.612V468.379H99.3201H100.797V459.372V450.365H99.5664C98.8893 450.365 98.2247 450.473 98.0895 450.605ZM262.41 450.588C262.265 450.729 262.146 454.79 262.146 459.612V468.379H263.814H265.482L265.383 459.462L265.284 450.545L263.979 450.437C263.261 450.379 262.555 450.446 262.41 450.588ZM432.603 450.605C432.467 450.737 432.356 454.79 432.356 459.612V468.379H433.833H435.31V459.372V450.365H434.08C433.402 450.365 432.738 450.473 432.603 450.605ZM596.906 450.605C596.77 450.737 596.659 454.79 596.659 459.612V468.379H598.136H599.613V459.372V450.365H598.382C597.705 450.365 597.041 450.473 596.906 450.605ZM759.38 450.588C759.235 450.729 759.116 454.79 759.116 459.612V468.379H760.599H762.083L761.984 459.462L761.885 450.545L760.764 450.438C760.148 450.379 759.525 450.446 759.38 450.588ZM922.68 459.35V468.379H924.164H925.647L925.548 459.462L925.45 450.545L924.065 450.433L922.68 450.321V459.35ZM1086.12 450.605C1085.99 450.737 1085.88 454.79 1085.88 459.612V468.379H1087.35H1088.83V459.372V450.365H1087.6C1086.92 450.365 1086.26 450.473 1086.12 450.605ZM1251.29 459.35V468.379H1252.77H1254.25L1254.15 459.462L1254.06 450.545L1252.67 450.433L1251.29 450.321V459.35ZM1415.84 450.605C1415.7 450.737 1415.59 454.79 1415.59 459.612V468.379H1417.07H1418.54V459.372V450.365H1417.31C1416.63 450.365 1415.97 450.473 1415.84 450.605ZM97.8433 495.041V504.048H99.3201H100.797V495.041V486.033H99.3201H97.8433V495.041ZM262.232 494.93L262.331 503.868H263.808H265.284V495.041V486.214L263.709 486.103L262.133 485.991L262.232 494.93ZM432.442 494.951L432.541 503.868L433.926 503.98L435.31 504.092V495.062V486.033H433.827H432.343L432.442 494.951ZM596.825 486.491C596.726 486.743 596.69 490.756 596.745 495.409L596.844 503.868L598.228 503.98L599.613 504.092V495.062V486.033H598.309C597.592 486.033 596.924 486.239 596.825 486.491ZM759.202 494.951L759.301 503.868L760.685 503.98L762.07 504.092V495.062V486.033H760.587H759.103L759.202 494.951ZM922.68 495.062V504.092L924.065 503.98L925.45 503.868L925.548 494.951L925.647 486.033H924.164H922.68V495.062ZM1085.96 494.951L1086.06 503.868L1087.44 503.98L1088.83 504.092V495.062V486.033H1087.35H1085.86L1085.96 494.951ZM1251.29 495.041V504.048H1252.76H1254.24V495.041V486.033H1252.76H1251.29V495.041ZM1415.67 494.951L1415.77 503.868L1417.16 503.98L1418.54 504.092V495.062V486.033H1417.06H1415.58L1415.67 494.951ZM97.8433 530.529V539.357H99.3201H100.797V530.529V521.702H99.3201H97.8433V530.529ZM262.146 530.509V539.357H263.814H265.482L265.383 530.619L265.284 521.882L263.715 521.772L262.146 521.661V530.509ZM432.356 530.529V539.357H433.833H435.31V530.529V521.702H433.833H432.356V530.529ZM596.906 521.943C596.77 522.074 596.659 526.047 596.659 530.77V539.357H598.136H599.613V530.529V521.702H598.382C597.705 521.702 597.041 521.81 596.906 521.943ZM759.116 530.529V539.357H760.593H762.07V530.529V521.702H760.593H759.116V530.529ZM922.68 530.529V539.357H924.157H925.634V530.529V521.702H924.157H922.68V530.529ZM1085.88 530.529V539.357H1087.35H1088.83V530.529V521.702H1087.35H1085.88V530.529ZM1251.29 530.529V539.357H1252.76H1254.24V530.529V521.702H1252.76H1251.29V530.529ZM1415.59 530.529V539.357H1417.07H1418.54V530.529V521.702H1417.07H1415.59V530.529ZM97.8433 566.198V575.025H99.3201H100.797V566.198V557.371H99.3201H97.8433V566.198ZM262.146 560.794V564.217H258.638H255.131V565.658V567.099H258.638H262.146V571.083V575.067L263.715 574.956L265.284 574.845L265.389 570.972L265.494 567.099H269.358H273.223V565.658V564.217H269.346H265.469V560.794V557.371H263.808H262.146V560.794ZM432.356 560.794V564.217H428.295H424.234V565.658V567.099H428.295H432.356V571.062V575.025H433.833H435.31V571.062V567.099H439.002H442.695V565.658V564.217H439.002H435.31V560.794V557.371H433.833H432.356V560.794ZM596.745 566.108L596.844 574.845L598.228 574.957L599.613 575.069V566.22V557.371H598.13H596.646L596.745 566.108ZM759.116 560.794V564.217H755.793H752.47V565.658V567.099H755.793H759.116V571.062V575.025H760.58H762.045L762.15 571.152L762.254 567.279L766.408 567.177L770.562 567.075V565.646V564.217H766.316H762.07V560.794V557.371H760.593H759.116V560.794ZM922.68 566.198V575.025H924.157H925.634V566.198V557.371H924.157H922.68V566.198ZM1085.88 560.794V564.217H1083.11H1080.34V565.658V567.099H1083.11H1085.88V571.062V575.025H1087.34H1088.8L1088.91 571.152L1089.01 567.279L1093.93 567.179L1098.84 567.078L1098.73 565.737L1098.61 564.397L1093.72 564.296L1088.83 564.196V560.783V557.371H1087.35H1085.88V560.794ZM1251.29 566.198V575.025H1252.76H1254.24V566.198V557.371H1252.76H1251.29V566.198ZM1415.59 560.794V564.217H1411.9H1408.2V565.658V567.099H1411.9H1415.59V571.062V575.025H1417.05H1418.52L1418.62 571.152L1418.73 567.279L1422.7 567.177L1426.67 567.074V565.646V564.217H1422.6H1418.54V560.794V557.371H1417.07H1415.59V560.794ZM0 565.658V567.099H9.04589H18.0918V565.658V564.217H9.04589H0V565.658ZM36.5528 565.658V567.099H45.5987H54.6445V565.658V564.217H45.5987H36.5528V565.658ZM72.7363 565.658V567.099H81.9668H91.1973V565.658V564.217H81.9668H72.7363V565.658ZM109.289 565.658V567.099H118.335H127.381V565.658V564.217H118.335H109.289V565.658ZM145.842 565.658V567.099H154.888H163.934V565.658V564.217H154.888H145.842V565.658ZM182.025 565.658V567.099H191.256H200.486V565.658V564.217H191.256H182.025V565.658ZM218.578 565.652V567.099H227.831H237.084L236.969 565.748L236.855 564.397L227.716 564.301L218.578 564.204V565.652ZM291.314 565.658V567.099H300.545H309.775V565.658V564.217H300.545H291.314V565.658ZM327.867 565.658V567.099H337.098H346.328V565.658V564.217H337.098H327.867V565.658ZM352.236 565.651V567.099H361.119H370.003L369.888 565.748L369.774 564.397L361.005 564.3L352.236 564.204V565.651ZM388.05 565.658V567.099H397.096H406.142V565.658V564.217H397.096H388.05V565.658ZM460.786 565.652V567.099H470.039H479.292L479.177 565.748L479.063 564.397L469.925 564.301L460.786 564.204V565.652ZM497.339 565.658V567.099H506.385H515.431V565.658V564.217H506.385H497.339V565.658ZM533.769 564.457C533.633 564.589 533.523 565.237 533.523 565.898V567.099H542.753H551.984V565.658V564.217H542.999C538.058 564.217 533.904 564.325 533.769 564.457ZM570.075 565.658V567.099H579.306H588.536V565.658V564.217H579.306H570.075V565.658ZM606.628 565.658V567.099H615.674H624.72V565.658V564.217H615.674H606.628V565.658ZM643.058 564.457C642.923 564.589 642.812 565.237 642.812 565.898V567.099H652.042H661.273V565.658V564.217H652.289C647.347 564.217 643.193 564.325 643.058 564.457ZM679.365 565.658V567.099H688.595H697.825V565.658V564.217H688.595H679.365V565.658ZM715.917 565.658V567.099H725.148H734.378V565.658V564.217H725.148H715.917V565.658ZM789.023 565.658V567.099H798.069H807.115V565.658V564.217H798.069H789.023V565.658ZM825.206 565.658V567.099H834.437H843.667V565.658V564.217H834.437H825.206V565.658ZM861.759 565.658V567.099H870.805H879.851V565.658V564.217H870.805H861.759V565.658ZM898.312 565.658V567.099H907.358H916.404V565.658V564.217H907.358H898.312V565.658ZM934.495 565.658V567.099H943.726H952.956V565.658V564.217H943.726H934.495V565.658ZM971.048 565.658V567.099H980.279H989.509V565.658V564.217H980.279H971.048V565.658ZM1007.6 565.658V567.099H1016.65H1025.69V565.658V564.217H1016.65H1007.6V565.658ZM1043.78 565.658V567.099H1053.01H1062.25V565.658V564.217H1053.01H1043.78V565.658ZM1116.89 565.658V567.099H1125.94H1134.98V565.658V564.217H1125.94H1116.89V565.658ZM1153.44 565.658V567.099H1162.49H1171.53V565.658V564.217H1162.49H1153.44V565.658ZM1189.63 565.658V567.099H1198.86H1208.09V565.658V564.217H1198.86H1189.63V565.658ZM1226.18 565.658V567.099H1235.22H1244.27V565.658V564.217H1235.22H1226.18V565.658ZM1262.61 564.457C1262.47 564.589 1262.36 565.237 1262.36 565.898V567.099H1271.59H1280.82V565.658V564.217H1271.84C1266.9 564.217 1262.74 564.325 1262.61 564.457ZM1298.92 565.658V567.099H1308.15H1317.38V565.658V564.217H1308.15H1298.92V565.658ZM1335.47 565.652V567.099H1344.72H1353.97L1353.86 565.748L1353.74 564.397L1344.61 564.301L1335.47 564.204V565.652ZM1372.02 565.658V567.099H1381.07H1390.11V565.658V564.217H1381.07H1372.02V565.658ZM1444.76 565.658V567.099H1453.99H1463.22V565.658V564.217H1453.99H1444.76V565.658ZM1481.31 565.658V567.099H1490.36H1499.4V565.658V564.217H1490.36H1481.31V565.658ZM1505.68 565.643V567.099H1508.84H1512L1511.89 565.748L1511.77 564.397L1508.72 564.292L1505.68 564.187V565.643ZM97.8433 601.687V610.694H99.3201H100.797V601.687V592.68H99.3201H97.8433V601.687ZM262.41 592.903C262.265 593.044 262.146 597.115 262.146 601.948V610.736L263.715 610.625L265.284 610.514V601.687V592.86L263.979 592.752C263.261 592.694 262.555 592.761 262.41 592.903ZM432.603 592.92C432.467 593.052 432.356 597.105 432.356 601.927V610.694H433.833H435.31V601.687V592.68H434.08C433.402 592.68 432.738 592.788 432.603 592.92ZM596.825 593.138C596.726 593.389 596.69 597.402 596.745 602.055L596.844 610.514L598.228 610.626L599.613 610.738V601.709V592.68H598.309C597.592 592.68 596.924 592.886 596.825 593.138ZM759.362 592.92C759.227 593.052 759.116 597.105 759.116 601.927V610.694H760.593H762.07V601.687V592.68H760.839C760.162 592.68 759.497 592.788 759.362 592.92ZM922.68 601.665V610.694H924.164H925.647L925.548 601.777L925.45 592.86L924.065 592.748L922.68 592.636V601.665ZM1085.88 601.687V610.694H1087.35H1088.83V601.687V592.68H1087.35H1085.88V601.687ZM1251.29 601.687V610.694H1252.76H1254.24V601.687V592.68H1252.76H1251.29V601.687ZM1415.84 592.92C1415.7 593.052 1415.59 597.105 1415.59 601.927V610.694H1417.07H1418.54V601.687V592.68H1417.31C1416.63 592.68 1415.97 592.788 1415.84 592.92ZM97.9293 637.266L98.0279 646.183L99.4124 646.295L100.797 646.407V637.377V628.349H99.3139H97.8303L97.9293 637.266ZM262.232 637.266L262.331 646.183H263.808H265.284L265.383 637.266L265.482 628.349H263.808H262.133L262.232 637.266ZM432.442 637.266L432.541 646.183L433.926 646.295L435.31 646.407V637.377V628.349H433.827H432.343L432.442 637.266ZM596.745 637.266L596.844 646.183L598.228 646.295L599.613 646.407V637.377V628.349H598.13H596.646L596.745 637.266ZM759.202 637.266L759.301 646.183H760.593H761.885L761.984 637.266L762.083 628.349H760.593H759.103L759.202 637.266ZM922.68 637.377V646.407L924.065 646.295L925.45 646.183L925.548 637.266L925.647 628.349H924.164H922.68V637.377ZM1085.96 637.266L1086.06 646.183L1087.44 646.295L1088.83 646.407V637.377V628.349H1087.35H1085.86L1085.96 637.266ZM1251.29 637.377V646.407L1252.67 646.295L1254.06 646.183L1254.15 637.266L1254.25 628.349H1252.77H1251.29V637.377ZM1415.67 637.266L1415.77 646.183L1417.16 646.295L1418.54 646.407V637.377V628.349H1417.06H1415.58L1415.67 637.266ZM97.8433 660.234V669.062H99.3201H100.797V660.234V651.407H99.3201H97.8433V660.234ZM262.146 660.234V669.062H263.808H265.469V660.234V651.407H263.808H262.146V660.234ZM432.356 660.234V669.062H433.833H435.31V660.234V651.407H433.833H432.356V660.234ZM596.659 660.234V669.062H598.136H599.613V660.234V651.407H598.136H596.659V660.234ZM759.116 660.234V669.062H760.593H762.07V660.234V651.407H760.593H759.116V660.234ZM922.68 660.234V669.062H924.157H925.634V660.234V651.407H924.157H922.68V660.234ZM1085.88 660.234V669.062H1087.35H1088.83V660.234V651.407H1087.35H1085.88V660.234ZM1251.29 660.234V669.062H1252.76H1254.24V660.234V651.407H1252.76H1251.29V660.234ZM1415.59 660.234V669.062H1417.07H1418.54V660.234V651.407H1417.07H1415.59V660.234ZM97.8433 695.903V704.73H99.3201H100.797V695.903V687.076H99.3201H97.8433V695.903ZM262.146 695.903V704.73H263.808H265.469V695.903V687.076H263.808H262.146V695.903ZM432.356 695.903V704.73H433.833H435.31V695.903V687.076H433.833H432.356V695.903ZM596.659 695.903V704.73H598.136H599.613V695.903V687.076H598.136H596.659V695.903ZM759.116 695.903V704.73H760.593H762.07V695.903V687.076H760.593H759.116V695.903ZM922.68 695.903V704.73H924.157H925.634V695.903V687.076H924.157H922.68V695.903ZM1085.88 695.903V704.73H1087.35H1088.83V695.903V687.076H1087.35H1085.88V695.903ZM1251.29 695.903V704.73H1252.76H1254.24V695.903V687.076H1252.76H1251.29V695.903ZM1415.59 695.903V704.73H1417.07H1418.54V695.903V687.076H1417.07H1415.59V695.903ZM97.8433 731.392V740.399H99.3201H100.797V731.392V722.385H99.3201H97.8433V731.392ZM262.41 722.608C262.265 722.749 262.146 724.54 262.146 726.588V730.311H258.638H255.131V731.752V733.193H258.625H262.119L262.225 736.706L262.331 740.219H263.808H265.284L265.39 736.706L265.496 733.193H269.359H273.223V731.752V730.311H269.358H265.494L265.389 726.438L265.284 722.565L263.979 722.457C263.261 722.399 262.555 722.466 262.41 722.608ZM432.356 726.336V730.287L428.387 730.389L424.418 730.491L424.304 731.842L424.189 733.193H428.273H432.356V736.796V740.399H433.833H435.31V736.796V733.193H439.002H442.695V731.752V730.311H439.002H435.31V726.348V722.385H433.833H432.356V726.336ZM596.825 722.843C596.726 723.094 596.69 727.107 596.745 731.76L596.844 740.219L598.228 740.331L599.613 740.443V731.414V722.385H598.309C597.592 722.385 596.924 722.591 596.825 722.843ZM759.116 726.348V730.311H755.793H752.47V731.752V733.193H755.78H759.089L759.195 736.706L759.301 740.219L760.671 740.33L762.042 740.441L762.148 736.907L762.254 733.374L766.408 733.272L770.562 733.17V731.74V730.311H766.316H762.07V726.348V722.385H760.593H759.116V726.348ZM922.68 731.392V740.399H924.157H925.634V731.392V722.385H924.157H922.68V731.392ZM1085.88 726.348V730.311H1083.11H1080.34V731.752V733.193H1083.11H1085.88V736.796V740.399H1087.34H1088.8L1088.91 736.886L1089.01 733.374L1093.81 733.193L1098.61 733.013V731.752V730.491L1093.72 730.391L1088.83 730.29V726.337V722.385H1087.35H1085.88V726.348ZM1251.29 731.392V740.399H1252.76H1254.24V731.392V722.385H1252.76H1251.29V731.392ZM1415.59 726.348V730.311H1411.9H1408.2V731.752V733.193H1411.88H1415.56L1415.67 736.706L1415.77 740.219L1417.16 740.331L1418.54 740.443V736.818V733.193H1422.6H1426.67V731.752V730.311H1422.6H1418.54V726.348V722.385H1417.07H1415.59V726.348ZM0 731.752V733.193H9.04589H18.0918V731.752V730.311H9.04589H0V731.752ZM36.5528 731.752V733.193H45.5987H54.6445V731.752V730.311H45.5987H36.5528V731.752ZM72.7363 731.746V733.193H81.989H91.242L91.1271 731.842L91.0127 730.491L81.8745 730.395L72.7363 730.298V731.746ZM109.289 731.752V733.193H118.335H127.381V731.752V730.311H118.335H109.289V731.752ZM145.842 731.752V733.193H154.888H163.934V731.752V730.311H154.888H145.842V731.752ZM182.272 730.551C182.136 730.683 182.025 731.332 182.025 731.993V733.193H191.256H200.486V731.752V730.311H191.502C186.561 730.311 182.407 730.419 182.272 730.551ZM218.578 731.752V733.206L227.716 733.109L236.855 733.013V731.752V730.491L227.716 730.395L218.578 730.298V731.752ZM291.561 730.551C291.425 730.683 291.314 731.332 291.314 731.993V733.193H300.545H309.775V731.752V730.311H300.791C295.85 730.311 291.696 730.419 291.561 730.551ZM327.867 731.746V733.193H337.12H346.373L346.258 731.842L346.144 730.491L337.005 730.395L327.867 730.298V731.746ZM352.236 731.746V733.193H361.119H370.003L369.888 731.842L369.774 730.491L361.005 730.395L352.236 730.298V731.746ZM388.05 731.752V733.193H397.096H406.142V731.752V730.311H397.096H388.05V731.752ZM460.786 731.746V733.193H470.039H479.292L479.177 731.842L479.063 730.491L469.925 730.395L460.786 730.298V731.746ZM497.339 731.752V733.193H506.385H515.431V731.752V730.311H506.385H497.339V731.752ZM533.769 730.551C533.633 730.683 533.523 731.332 533.523 731.993V733.193H542.753H551.984V731.752V730.311H542.999C538.058 730.311 533.904 730.419 533.769 730.551ZM570.075 731.752V733.193H579.306H588.536V731.752V730.311H579.306H570.075V731.752ZM606.628 731.752V733.193H615.674H624.72V731.752V730.311H615.674H606.628V731.752ZM642.956 730.825C642.844 731.108 642.808 731.716 642.875 732.176L642.996 733.013L652.135 733.109L661.273 733.206V731.758V730.311H652.215C644.71 730.311 643.123 730.399 642.956 730.825ZM679.611 730.551C679.475 730.683 679.365 731.332 679.365 731.993V733.193H688.595H697.825V731.752V730.311H688.841C683.9 730.311 679.746 730.419 679.611 730.551ZM715.917 731.746V733.193H725.17H734.423L734.308 731.842L734.194 730.491L725.055 730.395L715.917 730.298V731.746ZM789.023 731.752V733.193H798.069H807.115V731.752V730.311H798.069H789.023V731.752ZM825.206 731.752V733.193H834.437H843.667V731.752V730.311H834.437H825.206V731.752ZM861.759 731.752V733.193H870.805H879.851V731.752V730.311H870.805H861.759V731.752ZM898.312 731.752V733.193H907.358H916.404V731.752V730.311H907.358H898.312V731.752ZM934.742 730.551C934.606 730.683 934.495 731.332 934.495 731.993V733.193H943.726H952.956V731.752V730.311H943.972C939.031 730.311 934.877 730.419 934.742 730.551ZM971.048 731.746V733.193H980.301H989.554L989.439 731.842L989.325 730.491L980.186 730.395L971.048 730.298V731.746ZM1007.6 731.752V733.193H1016.65H1025.69V731.752V730.311H1016.65H1007.6V731.752ZM1043.78 731.752V733.193H1053.01H1062.25V731.752V730.311H1053.01H1043.78V731.752ZM1116.89 731.752V733.193H1125.94H1134.98V731.752V730.311H1125.94H1116.89V731.752ZM1153.44 731.752V733.193H1162.49H1171.53V731.752V730.311H1162.49H1153.44V731.752ZM1189.63 731.752V733.193H1198.86H1208.09V731.752V730.311H1198.86H1189.63V731.752ZM1226.18 731.752V733.193H1235.22H1244.27V731.752V730.311H1235.22H1226.18V731.752ZM1262.61 730.551C1262.47 730.683 1262.36 731.332 1262.36 731.993V733.193H1271.59H1280.82V731.752V730.311H1271.84C1266.9 730.311 1262.74 730.419 1262.61 730.551ZM1299.17 730.545C1299.03 730.681 1298.92 731.332 1298.92 731.993V733.193H1308.17H1317.42L1317.31 731.842L1317.19 730.491L1308.31 730.395C1303.42 730.342 1299.31 730.409 1299.17 730.545ZM1335.47 731.752V733.206L1344.61 733.109L1353.74 733.013V731.752V730.491L1344.61 730.395L1335.47 730.298V731.752ZM1372.02 731.752V733.193H1381.07H1390.11V731.752V730.311H1381.07H1372.02V731.752ZM1444.76 731.746V733.193H1454.01H1463.26L1463.15 731.842L1463.03 730.491L1453.9 730.395L1444.76 730.298V731.746ZM1481.31 731.752V733.193H1490.36H1499.4V731.752V730.311H1490.36H1481.31V731.752ZM1505.68 731.738V733.193H1508.84H1512L1511.89 731.842L1511.77 730.491L1508.72 730.387L1505.68 730.282V731.738ZM97.9293 766.971L98.0279 775.888L99.4124 776L100.797 776.112V767.082V758.054H99.3139H97.8303L97.9293 766.971ZM262.321 758.489C262.217 758.753 262.177 762.776 262.231 767.429L262.331 775.888H263.808H265.284V767.061V758.234L263.897 758.122C262.995 758.049 262.443 758.177 262.321 758.489ZM432.442 766.971L432.541 775.888L433.926 776L435.31 776.112V767.082V758.054H433.827H432.343L432.442 766.971ZM596.825 758.511C596.726 758.763 596.69 762.776 596.745 767.429L596.844 775.888L598.228 776L599.613 776.112V767.082V758.054H598.309C597.592 758.054 596.924 758.26 596.825 758.511ZM759.202 766.971L759.301 775.888L760.685 776L762.07 776.112V767.082V758.054H760.587H759.103L759.202 766.971ZM922.68 767.082V776.112L924.065 776L925.45 775.888L925.548 766.971L925.647 758.054H924.164H922.68V767.082ZM1085.96 766.971L1086.06 775.888L1087.44 776L1088.83 776.112V767.082V758.054H1087.35H1085.86L1085.96 766.971ZM1251.29 767.082V776.112L1252.67 776L1254.06 775.888L1254.15 766.971L1254.25 758.054H1252.77H1251.29V767.082ZM1415.67 766.971L1415.77 775.888L1417.16 776L1418.54 776.112V767.082V758.054H1417.06H1415.58L1415.67 766.971ZM97.8433 802.55V811.377H99.3201H100.797V802.55V793.722H99.3201H97.8433V802.55ZM262.146 802.57V811.418L263.715 811.307L265.284 811.197L265.383 802.459L265.482 793.722H263.814H262.146V802.57ZM432.356 802.55V811.377H433.833H435.31V802.55V793.722H433.833H432.356V802.55ZM596.745 802.459L596.844 811.197L598.228 811.308L599.613 811.42V802.571V793.722H598.13H596.646L596.745 802.459ZM759.116 802.55V811.377H760.593H762.07V802.55V793.722H760.593H759.116V802.55ZM922.68 802.55V811.377H924.157H925.634V802.55V793.722H924.157H922.68V802.55ZM1085.88 802.55V811.377H1087.35H1088.83V802.55V793.722H1087.35H1085.88V802.55ZM1251.29 802.55V811.377H1252.76H1254.24V802.55V793.722H1252.76H1251.29V802.55ZM1415.59 802.55V811.377H1417.07H1418.54V802.55V793.722H1417.07H1415.59V802.55ZM98.0895 829.271C97.954 829.403 97.8433 833.456 97.8433 838.279V847.046H99.3201H100.797V838.038V829.031H99.5664C98.8893 829.031 98.2247 829.139 98.0895 829.271ZM262.41 829.254C262.265 829.396 262.146 833.456 262.146 838.279V847.046H263.814H265.482L265.383 838.128L265.284 829.211L263.979 829.104C263.261 829.045 262.555 829.112 262.41 829.254ZM432.603 829.271C432.467 829.403 432.356 833.456 432.356 838.279V847.046H433.833H435.31V838.038V829.031H434.08C433.402 829.031 432.738 829.139 432.603 829.271ZM596.906 829.271C596.77 829.403 596.659 833.456 596.659 838.279V847.046H598.136H599.613V838.038V829.031H598.382C597.705 829.031 597.041 829.139 596.906 829.271ZM759.362 829.271C759.227 829.403 759.116 833.456 759.116 838.279V847.046H760.593H762.07V838.038V829.031H760.839C760.162 829.031 759.497 829.139 759.362 829.271ZM922.68 838.017V847.046H924.164H925.647L925.548 838.128L925.45 829.211L924.065 829.099L922.68 828.987V838.017ZM1086.12 829.271C1085.99 829.403 1085.88 833.456 1085.88 838.279V847.046H1087.35H1088.83V838.038V829.031H1087.6C1086.92 829.031 1086.26 829.139 1086.12 829.271ZM1251.29 838.017V847.046H1252.77H1254.25L1254.15 838.128L1254.06 829.211L1252.67 829.099L1251.29 828.987V838.017ZM1415.84 829.271C1415.7 829.403 1415.59 833.456 1415.59 838.279V847.046H1417.07H1418.54V838.038V829.031H1417.31C1416.63 829.031 1415.97 829.139 1415.84 829.271ZM97.8433 873.707V882.714H99.3201H100.797V873.707V864.7H99.3201H97.8433V873.707ZM262.232 873.617L262.331 882.534H263.808H265.284L265.383 873.617L265.482 864.7H263.808H262.133L262.232 873.617ZM432.442 873.617L432.541 882.534L433.926 882.646L435.31 882.758V873.729V864.7H433.827H432.343L432.442 873.617ZM596.745 873.617L596.844 882.534L598.228 882.646L599.613 882.758V873.729V864.7H598.13H596.646L596.745 873.617ZM759.202 873.617L759.301 882.534L760.685 882.646L762.07 882.758V873.729V864.7H760.587H759.103L759.202 873.617ZM922.68 873.729V882.758L924.065 882.646L925.45 882.534L925.548 873.617L925.647 864.7H924.164H922.68V873.729ZM1085.96 873.617L1086.06 882.534L1087.44 882.646L1088.83 882.758V873.729V864.7H1087.35H1085.86L1085.96 873.617ZM1251.29 873.707V882.714H1252.76H1254.24V873.707V864.7H1252.76H1251.29V873.707ZM1415.67 873.617L1415.77 882.534L1417.16 882.646L1418.54 882.758V873.729V864.7H1417.06H1415.58L1415.67 873.617ZM0 897.847V899.288H9.04589H18.0918V897.847V896.406H9.04589H0V897.847ZM36.5528 897.847V899.288H45.5987H54.6445V897.847V896.406H45.5987H36.5528V897.847ZM72.7363 897.847V899.288H81.9668H91.1973V897.847V896.406H81.9668H72.7363V897.847ZM109.289 897.847V899.288H118.335H127.381V897.847V896.406H118.335H109.289V897.847ZM145.842 897.847V899.288H154.888H163.934V897.847V896.406H154.888H145.842V897.847ZM182.025 897.847V899.288H191.256H200.486V897.847V896.406H191.256H182.025V897.847ZM218.578 897.841V899.288H227.831H237.084L236.969 897.937L236.855 896.586L227.716 896.489L218.578 896.393V897.841ZM255.131 897.847V899.288H264.177H273.223V897.847V896.406H264.177H255.131V897.847ZM291.314 897.847V899.288H300.545H309.775V897.847V896.406H300.545H291.314V897.847ZM327.867 897.847V899.288H337.098H346.328V897.847V896.406H337.098H327.867V897.847ZM352.236 897.84V899.288H361.119H370.003L369.888 897.937L369.774 896.586L361.005 896.489L352.236 896.393V897.84ZM388.05 897.847V899.288H397.096H406.142V897.847V896.406H397.096H388.05V897.847ZM424.234 897.847V899.288H433.464H442.695V897.847V896.406H433.464H424.234V897.847ZM460.786 897.841V899.288H470.039H479.292L479.177 897.937L479.063 896.586L469.925 896.489L460.786 896.393V897.841ZM497.339 897.847V899.288H506.385H515.431V897.847V896.406H506.385H497.339V897.847ZM533.769 896.646C533.633 896.778 533.523 897.426 533.523 898.087V899.288H542.753H551.984V897.847V896.406H542.999C538.058 896.406 533.904 896.514 533.769 896.646ZM570.075 897.847V899.288H579.306H588.536V897.847V896.406H579.306H570.075V897.847ZM606.628 897.847V899.288H615.674H624.72V897.847V896.406H615.674H606.628V897.847ZM643.058 896.646C642.923 896.778 642.812 897.426 642.812 898.087V899.288H652.042H661.273V897.847V896.406H652.289C647.347 896.406 643.193 896.514 643.058 896.646ZM679.365 897.847V899.288H688.595H697.825V897.847V896.406H688.595H679.365V897.847ZM715.917 897.841V899.288H725.17H734.423L734.308 897.937L734.194 896.586L725.055 896.489L715.917 896.393V897.841ZM752.47 897.847V899.288H761.516H770.562V897.847V896.406H761.516H752.47V897.847ZM789.023 897.847V899.288H798.069H807.115V897.847V896.406H798.069H789.023V897.847ZM825.206 897.847V899.288H834.437H843.667V897.847V896.406H834.437H825.206V897.847ZM861.759 897.847V899.288H870.805H879.851V897.847V896.406H870.805H861.759V897.847ZM898.312 897.847V899.288H907.358H916.404V897.847V896.406H907.358H898.312V897.847ZM934.495 897.847V899.288H943.726H952.956V897.847V896.406H943.726H934.495V897.847ZM971.048 897.847V899.288H980.279H989.509V897.847V896.406H980.279H971.048V897.847ZM1007.6 897.847V899.288H1016.65H1025.69V897.847V896.406H1016.65H1007.6V897.847ZM1043.78 897.847V899.288H1053.01H1062.25V897.847V896.406H1053.01H1043.78V897.847ZM1080.34 897.841V899.288H1089.59H1098.84L1098.73 897.937L1098.61 896.586L1089.48 896.489L1080.34 896.393V897.841ZM1116.89 897.847V899.288H1125.94H1134.98V897.847V896.406H1125.94H1116.89V897.847ZM1153.44 897.847V899.288H1162.49H1171.53V897.847V896.406H1162.49H1153.44V897.847ZM1189.63 897.847V899.288H1198.86H1208.09V897.847V896.406H1198.86H1189.63V897.847ZM1226.18 897.847V899.288H1235.22H1244.27V897.847V896.406H1235.22H1226.18V897.847ZM1262.61 896.646C1262.47 896.778 1262.36 897.426 1262.36 898.087V899.288H1271.59H1280.82V897.847V896.406H1271.84C1266.9 896.406 1262.74 896.514 1262.61 896.646ZM1298.92 897.847V899.288H1308.15H1317.38V897.847V896.406H1308.15H1298.92V897.847ZM1335.47 897.841V899.288H1344.72H1353.97L1353.86 897.937L1353.74 896.586L1344.61 896.489L1335.47 896.393V897.841ZM1372.02 897.847V899.288H1381.07H1390.11V897.847V896.406H1381.07H1372.02V897.847ZM1408.2 897.847V899.288H1417.43H1426.67V897.847V896.406H1417.43H1408.2V897.847ZM1444.76 897.847V899.288H1453.99H1463.22V897.847V896.406H1453.99H1444.76V897.847ZM1481.31 897.847V899.288H1490.36H1499.4V897.847V896.406H1490.36H1481.31V897.847ZM1505.68 897.832V899.288H1508.84H1512L1511.89 897.937L1511.77 896.586L1508.72 896.481L1505.68 896.376V897.832ZM97.8433 909.196V918.023H99.3201H100.797V909.196V900.369H99.3201H97.8433V909.196ZM262.146 909.175V918.023H263.814H265.482L265.383 909.286L265.284 900.549L263.715 900.438L262.146 900.327V909.175ZM432.356 909.196V918.023H433.833H435.31V909.196V900.369H433.833H432.356V909.196ZM596.906 900.609C596.77 900.741 596.659 904.713 596.659 909.436V918.023H598.136H599.613V909.196V900.369H598.382C597.705 900.369 597.041 900.477 596.906 900.609ZM759.116 909.196V918.023H760.593H762.07V909.196V900.369H760.593H759.116V909.196ZM922.68 909.196V918.023H924.157H925.634V909.196V900.369H924.157H922.68V909.196ZM1085.88 909.196V918.023H1087.35H1088.83V909.196V900.369H1087.35H1085.88V909.196ZM1251.29 909.196V918.023H1252.76H1254.24V909.196V900.369H1252.76H1251.29V909.196ZM1415.59 909.196V918.023H1417.07H1418.54V909.196V900.369H1417.07H1415.59V909.196ZM97.8433 944.865V953.692H99.3201H100.797V944.865V936.038H99.3201H97.8433V944.865ZM262.146 944.865V953.733L263.715 953.622L265.284 953.512V944.865V936.218L263.715 936.107L262.146 935.996V944.865ZM432.356 944.865V953.692H433.833H435.31V944.865V936.038H433.833H432.356V944.865ZM596.825 936.496C596.726 936.748 596.69 940.68 596.745 945.233L596.844 953.512L598.228 953.623L599.613 953.735V944.886V936.038H598.309C597.592 936.038 596.924 936.244 596.825 936.496ZM759.116 944.865V953.692H760.593H762.07V944.865V936.038H760.593H759.116V944.865ZM922.68 944.865V953.692H924.157H925.634V944.865V936.038H924.157H922.68V944.865ZM1085.88 944.865V953.692H1087.35H1088.83V944.865V936.038H1087.35H1085.88V944.865ZM1251.29 944.865V953.692H1252.76H1254.24V944.865V936.038H1252.76H1251.29V944.865ZM1415.59 944.865V953.692H1417.07H1418.54V944.865V936.038H1417.07H1415.59V944.865ZM98.0895 971.586C97.954 971.718 97.8433 974.556 97.8433 977.892V983.956H99.3201H100.797V977.651V971.346H99.5664C98.8893 971.346 98.2247 971.454 98.0895 971.586ZM262.318 971.789C262.213 972.057 262.172 974.863 262.229 978.026L262.331 983.776H263.808H265.284V977.651V971.526L263.897 971.414C262.986 971.341 262.444 971.469 262.318 971.789ZM432.603 971.586C432.467 971.718 432.356 974.556 432.356 977.892V983.956H433.833H435.31V977.651V971.346H434.08C433.402 971.346 432.738 971.454 432.603 971.586ZM596.822 971.811C596.722 972.067 596.685 974.863 596.742 978.026L596.844 983.776L598.228 983.888L599.613 984V977.673V971.346H598.309C597.585 971.346 596.924 971.553 596.822 971.811ZM759.38 971.569C759.235 971.711 759.116 974.556 759.116 977.892V983.956H760.602H762.087L761.986 977.741L761.885 971.526L760.764 971.419C760.148 971.36 759.525 971.428 759.38 971.569ZM922.68 977.63V983.956H924.166H925.652L925.551 977.741L925.45 971.526L924.065 971.415L922.68 971.303V977.63ZM1086.12 971.586C1085.99 971.718 1085.88 974.556 1085.88 977.892V983.956H1087.35H1088.83V977.651V971.346H1087.6C1086.92 971.346 1086.26 971.454 1086.12 971.586ZM1251.29 977.63V983.956H1252.77H1254.26L1254.16 977.741L1254.06 971.526L1252.67 971.415L1251.29 971.303V977.63ZM1415.84 971.586C1415.7 971.718 1415.59 974.556 1415.59 977.892V983.956H1417.07H1418.54V977.651V971.346H1417.31C1416.63 971.346 1415.97 971.454 1415.84 971.586Z" fill="#FAF1F1"/>
</svg>
